<svg width="474" height="169" viewBox="0 0 474 169" fill="none" xmlns="http://www.w3.org/2000/svg">
<path d="M47.125 58.1172H52.6328L77.0469 113H69.0391L61.7734 96.8281H38.5703L31.6953 113H23.6875L47.125 58.1172ZM58.5703 89.875L49.7812 70.1094L41.6172 89.875H58.5703ZM106.07 58.4297H113.219V113H98.0234C92.7109 113 88.4661 111.32 85.2891 107.961C82.138 104.602 80.5625 100.096 80.5625 94.4453C80.5625 89.1589 82.2161 84.8099 85.5234 81.3984C88.8568 77.987 93.1016 76.2812 98.2578 76.2812C100.654 76.2812 103.258 76.7891 106.07 77.8047V58.4297ZM106.07 106.906V84.1328C103.857 83.013 101.617 82.4531 99.3516 82.4531C95.8099 82.4531 92.9844 83.612 90.875 85.9297C88.7917 88.2474 87.75 91.3724 87.75 95.3047C87.75 99.0026 88.6615 101.854 90.4844 103.859C91.5781 105.057 92.737 105.865 93.9609 106.281C95.1849 106.698 97.3854 106.906 100.562 106.906H106.07ZM145.445 91.3984V106.672C145.445 107.896 145.862 108.508 146.695 108.508C147.555 108.508 148.896 107.87 150.719 106.594V110.93C149.104 111.971 147.802 112.674 146.812 113.039C145.849 113.43 144.833 113.625 143.766 113.625C140.719 113.625 138.922 112.427 138.375 110.031C135.354 112.375 132.138 113.547 128.727 113.547C126.227 113.547 124.143 112.727 122.477 111.086C120.81 109.419 119.977 107.336 119.977 104.836C119.977 102.57 120.784 100.552 122.398 98.7812C124.039 96.9844 126.357 95.5651 129.352 94.5234L138.453 91.3984V89.4844C138.453 85.1615 136.292 83 131.969 83C128.089 83 124.312 85.0052 120.641 89.0156V81.2422C123.401 77.987 127.372 76.3594 132.555 76.3594C136.435 76.3594 139.547 77.375 141.891 79.4062C142.672 80.0573 143.375 80.9297 144 82.0234C144.625 83.0911 145.016 84.1719 145.172 85.2656C145.354 86.3333 145.445 88.3776 145.445 91.3984ZM138.453 105.891V95.2266L133.688 97.0625C131.266 98.026 129.547 99.0026 128.531 99.9922C127.542 100.956 127.047 102.167 127.047 103.625C127.047 105.109 127.516 106.32 128.453 107.258C129.417 108.195 130.654 108.664 132.164 108.664C134.43 108.664 136.526 107.74 138.453 105.891ZM186.461 86.9062V113H179.312V93C179.312 89.0156 178.779 86.2422 177.711 84.6797C176.643 83.0911 174.781 82.2969 172.125 82.2969C170.641 82.2969 169.273 82.6354 168.023 83.3125C166.799 83.9896 165.393 85.1875 163.805 86.9062V113H156.695V77.0625H163.805V81.7891C167.424 78.1693 170.966 76.3594 174.43 76.3594C178.987 76.3594 182.516 78.5208 185.016 82.8438C188.818 78.4688 192.789 76.2812 196.93 76.2812C200.419 76.2812 203.284 77.5573 205.523 80.1094C207.789 82.6615 208.922 86.5547 208.922 91.7891V113H201.812V91.7109C201.812 88.7161 201.201 86.4245 199.977 84.8359C198.753 83.2474 196.995 82.4531 194.703 82.4531C191.76 82.4531 189.013 83.9375 186.461 86.9062ZM237.32 58.3516H282.906V65.3047H263.883V113H256.031V65.3047H237.32V58.3516ZM306.539 76.9844C312.008 76.9844 316.552 78.7552 320.172 82.2969C323.792 85.8125 325.602 90.2396 325.602 95.5781C325.602 100.76 323.766 105.07 320.094 108.508C316.422 111.919 311.799 113.625 306.227 113.625C300.836 113.625 296.331 111.893 292.711 108.43C289.091 104.94 287.281 100.591 287.281 95.3828C287.281 90.1224 289.104 85.7474 292.75 82.2578C296.422 78.7422 301.018 76.9844 306.539 76.9844ZM306.148 83.3906C302.737 83.3906 299.938 84.5104 297.75 86.75C295.562 88.9896 294.469 91.8411 294.469 95.3047C294.469 98.7422 295.589 101.555 297.828 103.742C300.068 105.904 302.945 106.984 306.461 106.984C309.951 106.984 312.802 105.891 315.016 103.703C317.255 101.49 318.375 98.6641 318.375 95.2266C318.375 91.8151 317.216 88.9896 314.898 86.75C312.581 84.5104 309.664 83.3906 306.148 83.3906ZM350.68 76.9844C356.148 76.9844 360.693 78.7552 364.312 82.2969C367.932 85.8125 369.742 90.2396 369.742 95.5781C369.742 100.76 367.906 105.07 364.234 108.508C360.562 111.919 355.94 113.625 350.367 113.625C344.977 113.625 340.471 111.893 336.852 108.43C333.232 104.94 331.422 100.591 331.422 95.3828C331.422 90.1224 333.245 85.7474 336.891 82.2578C340.562 78.7422 345.159 76.9844 350.68 76.9844ZM350.289 83.3906C346.878 83.3906 344.078 84.5104 341.891 86.75C339.703 88.9896 338.609 91.8411 338.609 95.3047C338.609 98.7422 339.729 101.555 341.969 103.742C344.208 105.904 347.086 106.984 350.602 106.984C354.091 106.984 356.943 105.891 359.156 103.703C361.396 101.49 362.516 98.6641 362.516 95.2266C362.516 91.8151 361.357 88.9896 359.039 86.75C356.721 84.5104 353.805 83.3906 350.289 83.3906ZM374.273 77.0625H404.977L385.953 106.359H404.977V113H373.492L392.359 83.7031H374.273V77.0625ZM441.617 95.6562H416.344C416.526 99.0938 417.672 101.828 419.781 103.859C421.917 105.891 424.664 106.906 428.023 106.906C432.711 106.906 437.034 105.448 440.992 102.531V109.484C438.805 110.943 436.63 111.984 434.469 112.609C432.333 113.234 429.82 113.547 426.93 113.547C422.971 113.547 419.768 112.727 417.32 111.086C414.872 109.445 412.906 107.245 411.422 104.484C409.964 101.698 409.234 98.4818 409.234 94.8359C409.234 89.3672 410.784 84.9271 413.883 81.5156C416.982 78.0781 421.005 76.3594 425.953 76.3594C430.719 76.3594 434.521 78.026 437.359 81.3594C440.198 84.6927 441.617 89.1589 441.617 94.7578V95.6562ZM416.5 91.3984H434.586C434.404 88.5599 433.557 86.3724 432.047 84.8359C430.536 83.2995 428.505 82.5312 425.953 82.5312C423.401 82.5312 421.305 83.2995 419.664 84.8359C418.049 86.3724 416.995 88.5599 416.5 91.3984Z" fill="black"/>
</svg>
